HIERARCHY
ROOT Hips
{
	OFFSET 0.00000 0.00000 0.00000
	CHANNELS 6 Xposition Yposition Zposition Zrotation Yrotation Xrotation 
	JOINT LHipJoint
	{
		OFFSET 0 0 0
		CHANNELS 3 Zrotation Yrotation Xrotation
		JOINT LeftUpLeg
		{
			OFFSET 1.57358 -1.76629 0.73362
			CHANNELS 3 Zrotation Yrotation Xrotation
			JOINT LeftLeg
			{
				OFFSET 2.40600 -6.61045 0.00000
				CHANNELS 3 Zrotation Yrotation Xrotation
				JOINT LeftFoot
				{
					OFFSET 2.66168 -7.31291 0.00000
					CHANNELS 3 Zrotation Yrotation Xrotation
					JOINT LeftToeBase
					{
						OFFSET 0.20870 -0.57341 2.12506
						CHANNELS 3 Zrotation Yrotation Xrotation
						End Site
						{
							OFFSET 0.00000 -0.00000 1.10557
						}
					}
				}
			}
		}
	}
	JOINT RHipJoint
	{
		OFFSET 0 0 0
		CHANNELS 3 Zrotation Yrotation Xrotation
		JOINT RightUpLeg
		{
			OFFSET -1.49299 -1.76629 0.73362
			CHANNELS 3 Zrotation Yrotation Xrotation
			JOINT RightLeg
			{
				OFFSET -2.43663 -6.69460 0.00000
				CHANNELS 3 Zrotation Yrotation Xrotation
				JOINT RightFoot
				{
					OFFSET -2.62959 -7.22474 0.00000
					CHANNELS 3 Zrotation Yrotation Xrotation
					JOINT RightToeBase
					{
						OFFSET -0.25784 -0.70841 2.21862
						CHANNELS 3 Zrotation Yrotation Xrotation
						End Site
						{
							OFFSET -0.00000 -0.00000 1.16452
						}
					}
				}
			}
		}
	}
	JOINT LowerBack
	{
		OFFSET 0 0 0
		CHANNELS 3 Zrotation Yrotation Xrotation
		JOINT Spine
		{
			OFFSET -0.00034 2.12399 -0.25450
			CHANNELS 3 Zrotation Yrotation Xrotation
			JOINT Spine1
			{
				OFFSET 0.05594 2.14379 -0.03318
				CHANNELS 3 Zrotation Yrotation Xrotation
				JOINT Neck
				{
					OFFSET 0 0 0
					CHANNELS 3 Zrotation Yrotation Xrotation
					JOINT Neck1
					{
						OFFSET -0.09835 1.62725 0.24211
						CHANNELS 3 Zrotation Yrotation Xrotation
						JOINT Head
						{
							OFFSET 0.10849 1.66041 -0.22648
							CHANNELS 3 Zrotation Yrotation Xrotation
							End Site
							{
								OFFSET 0.04385 1.68267 -0.10541
							}
						}
					}
				}
				JOINT LeftShoulder
				{
					OFFSET 0 0 0
					CHANNELS 3 Zrotation Yrotation Xrotation
					JOINT LeftArm
					{
						OFFSET 3.29108 0.79398 -0.68179
						CHANNELS 3 Zrotation Yrotation Xrotation
						JOINT LeftForeArm
						{
							OFFSET 5.15310 -0.00000 -0.00000
							CHANNELS 3 Zrotation Yrotation Xrotation
							JOINT LeftHand
							{
								OFFSET 3.75138 -0.00000 -0.00000
								CHANNELS 3 Zrotation Yrotation Xrotation
								JOINT LeftFingerBase
								{
									OFFSET 0 0 0
									CHANNELS 3 Zrotation Yrotation Xrotation
									JOINT LeftHandIndex1
									{
										OFFSET 0.52917 -0.00000 0.00000
										CHANNELS 3 Zrotation Yrotation Xrotation
										End Site
										{
											OFFSET 0.42663 -0.00000 0.00000
										}
									}
								}
								JOINT LThumb
								{
									OFFSET 0 0 0
									CHANNELS 3 Zrotation Yrotation Xrotation
									End Site
									{
										OFFSET 0.43315 -0.00000 0.43315
									}
								}
							}
						}
					}
				}
				JOINT RightShoulder
				{
					OFFSET 0 0 0
					CHANNELS 3 Zrotation Yrotation Xrotation
					JOINT RightArm
					{
						OFFSET -3.07414 1.06285 -0.44338
						CHANNELS 3 Zrotation Yrotation Xrotation
						JOINT RightForeArm
						{
							OFFSET -5.29613 -0.00000 0.00000
							CHANNELS 3 Zrotation Yrotation Xrotation
							JOINT RightHand
							{
								OFFSET -3.76144 -0.00000 -0.00000
								CHANNELS 3 Zrotation Yrotation Xrotation
								JOINT RightFingerBase
								{
									OFFSET 0 0 0
									CHANNELS 3 Zrotation Yrotation Xrotation
									JOINT RightHandIndex1
									{
										OFFSET -0.74732 -0.00000 0.00000
										CHANNELS 3 Zrotation Yrotation Xrotation
										End Site
										{
											OFFSET -0.60251 -0.00000 0.00000
										}
									}
								}
								JOINT RThumb
								{
									OFFSET 0 0 0
									CHANNELS 3 Zrotation Yrotation Xrotation
									End Site
									{
										OFFSET -0.61171 -0.00000 0.61171
									}
								}
							}
						}
					}
				}
			}
		}
	}
}
MOTION
Frames: 15
Frame Time: .0083333
1.7856 16.5578 -24.1595 0 0 0 0 0 0 -21 0 0 0 0 0 0 0 0 0 0 0 0 0 0 21 0 0 0 0 0 0 0 0 0 0 0 0 0 0 0 0 0 0 0 0 0 0 -16 0 0 21 0 0 11 0 0 0 -8 0 0 0 0 0 0 0 0 0 0 0 0 0 0 0 0 0 0 0 0 8 0 0 0 0 0 0 0 0 0 0 0 0 0 0 0 0 0
1.7856 16.5578 -24.1595 1.5476 -0.6833 -7.4871 0.0000 0.0000 0.0000 -20.8868 -7.8203 -24.9073 6.2416 14.6584 45.9437 0.2893 -2.9832 -9.5698 0.0211 -0.9370 -2.5755 0.0000 0.0000 0.0000 19.2237 6.0016 -6.0082 -19.9502 -19.9999 89.8543 0.7757 -15.9764 -1.2753 -0.3694 -3.9042 10.8072 -2.0274 1.3928 12.5639 2.0537 1.6829 2.5155 3.0240 0.8677 -4.5200 -9.1160 -4.0071 -13.9287 6.4683 -4.5845 12.9932 3.1179 -2.1398 6.6068 0.0000 -0.0000 0.0000 -89.6219 30.6096 39.9186 115.4435 -57.4067 -81.8429 -0.0000 0.0000 -30.1240 17.6928 8.3555 2.6541 -7.1250 0.0000 -0.0000 -7.9182 38.6302 1.2516 0.0000 -0.0000 0.0000 86.4908 -15.3884 45.2030 -140.8079 47.5839 -102.1595 0.0000 -0.0000 -8.9099 -18.2725 30.6732 -9.5612 7.1250 -0.0000 -0.0000 7.4374 1.7713 7.7284
1.7791 16.5039 -23.6631 3.0990 -1.4004 -7.5113 0.0000 0.0000 0.0000 -22.6520 -6.8045 -23.8453 6.5670 14.9562 47.2172 0.4473 -2.8495 -11.9758 0.0078 -0.5699 -1.5659 0.0000 0.0000 0.0000 16.4576 7.0957 -9.1378 -20.7941 -19.9849 92.3223 0.6878 -14.8177 -2.2429 -0.3011 -3.5284 9.7535 -3.5829 1.5972 12.6722 1.5854 1.7219 2.6817 3.4066 0.8998 -4.4363 -9.2553 -3.9255 -15.2128 6.7546 -4.4054 13.7687 3.2457 -2.0174 7.0716 -0.0000 -0.0000 0.0000 -89.4952 27.6808 40.3593 113.5483 -57.7974 -80.2426 -0.0000 0.0000 -30.9701 17.4944 8.9203 2.7980 -7.1250 0.0000 -0.0000 -8.1781 39.2001 1.1779 -0.0000 -0.0000 0.0000 87.6261 -16.0024 44.1551 -138.0671 49.1743 -100.1103 0.0000 -0.0000 -8.1352 -18.5695 30.8826 -9.7835 7.1250 -0.0000 -0.0000 7.2922 2.0374 7.6079
1.7712 16.4655 -23.1720 3.7179 -2.1509 -7.2425 0.0000 0.0000 0.0000 -23.4756 -5.5900 -23.2348 6.8595 15.2124 48.3409 0.5900 -2.0538 -13.9509 0.1694 -2.6513 -7.3094 0.0000 0.0000 0.0000 14.8344 8.1741 -12.4863 -21.3473 -19.9564 93.9421 0.6112 -13.8018 -3.2647 -0.4865 -4.4725 12.4100 -4.1376 1.5885 12.4485 1.3234 1.6321 2.6338 3.4632 0.8599 -4.3627 -9.3644 -3.6715 -15.8536 7.1034 -4.0625 14.3975 3.4192 -1.8195 7.3669 0.0000 0.0000 0.0000 -89.3667 24.8451 40.5853 111.4926 -58.1805 -78.4995 -0.0000 0.0000 -31.7924 17.6926 8.8695 2.8158 -7.1250 0.0000 -0.0000 -7.9998 39.1626 1.1593 0.0000 0.0000 0.0000 88.6618 -16.9859 43.2430 -134.9424 50.7967 -97.7166 0.0000 -0.0000 -7.6829 -18.9361 30.4535 -9.8643 7.1250 -0.0000 -0.0000 7.0307 1.6725 7.2874
1.7493 16.4283 -22.6981 4.3511 -2.1566 -7.1259 0.0000 0.0000 0.0000 -24.2490 -5.1781 -21.8739 7.1424 15.4506 49.4109 0.8580 -2.4517 -16.8463 0.0542 -1.5020 -4.1312 0.0000 0.0000 0.0000 13.2359 8.4510 -15.8616 -21.7854 -19.9234 95.2266 0.5273 -12.7409 -4.6887 -0.7574 -5.5583 15.5081 -4.8597 1.3554 12.6646 1.0821 1.2026 2.3958 3.6856 0.6680 -4.7010 -9.3260 -3.3735 -15.6239 7.2054 -3.7105 14.5555 3.4909 -1.6452 7.3485 0.0000 -0.0000 0.0000 -89.2658 22.3191 40.6981 109.6123 -58.4955 -76.8990 -0.0000 0.0000 -32.3408 18.0761 9.7955 3.1783 -7.1250 0.0000 -0.0000 -7.8224 40.1532 0.9413 0.0000 -0.0000 0.0000 89.4924 -18.0222 42.4183 -130.9758 52.5943 -94.6031 0.0000 -0.0000 -7.2586 -18.9941 29.6067 -9.6511 7.1250 -0.0000 -0.0000 6.8977 0.8257 7.0474
1.7274 16.3995 -22.2256 4.3959 -2.1592 -6.7297 0.0000 0.0000 0.0000 -24.3760 -4.9004 -20.6588 7.3209 15.5962 50.0777 1.0809 -2.7111 -18.9325 0.0580 -1.5541 -4.2748 0.0000 0.0000 0.0000 12.4578 8.7772 -19.5409 -21.9808 -19.9057 95.8001 0.4831 -12.2182 -5.1009 -0.6869 -5.2986 14.7621 -4.8749 1.1410 12.6010 0.9406 0.9069 2.0970 3.5939 0.5338 -4.9494 -9.2232 -3.2416 -15.3152 7.3143 -3.6022 14.5591 3.5244 -1.5838 7.2863 -0.0000 -0.0000 0.0000 -89.0367 19.5152 40.9508 107.8141 -58.7663 -75.3636 -0.0000 0.0000 -32.4258 18.3572 11.2116 3.6915 -7.1250 0.0000 -0.0000 -7.8281 41.6476 0.6518 -0.0000 -0.0000 0.0000 90.5225 -19.0019 41.1505 -126.8173 54.2012 -91.2638 0.0000 -0.0000 -6.8733 -18.8129 28.6122 -9.2658 7.1250 -0.0000 -0.0000 6.8921 -0.2163 6.9164
1.6694 16.3424 -21.8499 3.9634 0.7681 -5.8538 0.0000 0.0000 0.0000 -24.2390 -7.1942 -19.8993 7.4882 15.7296 50.6974 1.1696 -2.8936 -19.6868 0.0961 -1.9994 -5.5040 0.0000 0.0000 0.0000 11.6672 6.1503 -24.5473 -22.0821 -19.8957 96.0979 0.4207 -11.4975 -5.7943 -0.4633 -4.3661 12.1090 -4.7379 -0.0087 13.4281 0.9584 -0.6482 1.4968 3.8144 -0.1956 -5.8882 -9.1823 -3.1416 -15.3211 7.5851 -3.5252 14.5990 3.6174 -1.5205 7.2972 0.0000 0.0000 0.0000 -88.8098 17.6895 40.9533 107.4918 -58.8118 -75.0879 -0.0000 0.0000 -31.6035 17.2456 11.0633 3.4090 -7.1250 0.0000 -0.0000 -8.7771 41.3898 0.7884 0.0000 0.0000 0.0000 91.5269 -20.0416 39.8228 -123.7901 55.2124 -88.7927 0.0000 -0.0000 -7.1674 -18.7647 27.2428 -8.8398 7.1250 -0.0000 -0.0000 6.7774 -1.6177 6.6303
1.7049 16.3829 -21.2691 3.9289 -1.6495 -6.2447 0.0000 0.0000 0.0000 -24.3580 -4.2765 -17.5646 7.4325 15.6855 50.4916 1.4260 -1.9592 -22.0264 0.1569 -2.5521 -7.0342 0.0000 0.0000 0.0000 11.7510 8.5869 -25.5795 -21.6491 -19.9347 94.8267 0.3586 -10.8900 -6.9232 -0.2459 -3.1911 8.8114 -4.0409 0.4537 12.5316 0.8076 0.1007 1.8860 3.1159 0.1276 -5.0524 -9.0722 -3.0542 -15.9013 7.6133 -3.4073 15.0609 3.6261 -1.4459 7.5368 0.0000 -0.0000 0.0000 -88.9414 15.8398 40.6977 107.9983 -58.7399 -75.5210 -0.0000 0.0000 -30.2387 18.4243 10.1832 3.3706 -7.1250 0.0000 -0.0000 -7.5857 40.5856 0.8311 0.0000 -0.0000 0.0000 91.9445 -21.0889 39.3870 -120.9538 56.0504 -86.4513 0.0000 -0.0000 -10.1817 -17.8090 25.0211 -7.7373 7.1250 -0.0000 -0.0000 7.1506 -4.0377 6.6825
1.6940 16.3662 -20.8085 4.0923 -2.8867 -5.7146 0.0000 0.0000 0.0000 -24.6515 -3.0199 -16.5723 7.3898 15.6515 50.3335 1.5543 -1.3012 -23.1983 0.2483 -3.2067 -8.8548 0.0000 0.0000 0.0000 11.1206 10.2386 -28.9214 -21.3111 -19.9587 93.8358 0.2864 -10.1043 -7.5695 -0.1768 -2.7089 7.4692 -4.2080 0.6410 12.4373 0.7814 0.3237 1.5967 3.1460 0.2512 -5.3251 -8.8987 -2.9844 -16.5701 7.4357 -3.2941 15.7370 3.5582 -1.3883 7.8601 -0.0000 0.0000 0.0000 -89.5113 14.3226 39.9928 109.4547 -58.5204 -76.7646 -0.0000 0.0000 -28.6638 18.8518 10.5795 3.5870 -7.1250 0.0000 -0.0000 -7.2801 41.0361 0.7160 -0.0000 0.0000 0.0000 91.7825 -22.3366 40.0296 -120.5889 56.1510 -86.1484 0.0000 -0.0000 -14.4379 -20.1659 22.4732 -7.9911 7.1250 -0.0000 -0.0000 5.4798 -6.2890 4.8694
1.6952 16.3768 -20.2960 4.6865 -7.3528 -6.1724 0.0000 0.0000 0.0000 -25.2582 1.2896 -14.8296 7.1749 15.4774 49.5326 1.6701 -0.0017 -24.4623 0.3318 -3.7022 -10.2403 0.0000 0.0000 0.0000 10.8600 14.9603 -30.3072 -20.6867 -19.9887 92.0082 0.2417 -9.5922 -7.8822 -0.0958 -1.9966 5.4962 -4.8229 1.9456 12.2405 0.7980 1.9821 1.7560 3.2321 1.0729 -5.2094 -8.9799 -2.8259 -17.1405 7.3287 -3.0127 16.3598 3.5779 -1.2629 8.1419 0.0000 0.0000 0.0000 -90.3938 12.8507 39.0656 111.1413 -58.2419 -78.2008 -0.0000 0.0000 -27.8074 18.0300 10.0563 3.2530 -7.1250 0.0000 -0.0000 -7.9071 40.4197 0.8994 0.0000 0.0000 0.0000 91.1974 -23.4481 39.5133 -118.9473 56.5840 -84.7816 0.0000 -0.0000 -15.1054 -17.1389 23.8312 -7.1025 7.1250 -0.0000 -0.0000 7.4709 -5.3502 6.8011
1.6674 16.3840 -19.8296 5.1018 -8.5086 -5.6687 0.0000 0.0000 0.0000 -25.8688 2.4874 -13.5523 7.0023 15.3338 48.8829 1.6641 0.6132 -24.6294 0.3423 -3.7595 -10.4011 0.0000 0.0000 0.0000 10.1454 16.3760 -33.0104 -19.9637 -20.0000 89.8940 0.1958 -9.1343 -8.3819 -0.0301 -1.1202 3.0796 -5.7130 2.1311 11.8660 0.9678 2.1390 1.5651 3.8943 1.1750 -5.2574 -9.0937 -2.6716 -17.6680 7.0794 -2.6825 16.6011 3.5559 -1.1312 8.2847 -0.0000 0.0000 0.0000 -91.2443 11.1951 38.2497 113.1372 -57.8773 -79.8946 -0.0000 0.0000 -28.4430 16.9112 8.5240 2.5803 -7.1250 0.0000 -0.0000 -8.6121 38.7474 1.3381 -0.0000 0.0000 0.0000 90.3367 -24.7645 39.8057 -119.2287 56.5120 -85.0164 0.0000 -0.0000 -16.7465 -16.2563 24.5661 -6.9121 7.1250 -0.0000 -0.0000 8.0663 -4.7323 7.4490
1.6518 16.4299 -19.3108 5.2472 -7.0629 -5.5291 0.0000 0.0000 0.0000 -26.4332 1.7266 -10.7614 6.7563 15.1232 47.9463 1.6265 0.7378 -24.3962 0.3683 -3.8982 -10.7904 0.0000 0.0000 0.0000 9.6291 14.7256 -34.5775 -18.9340 -19.9727 86.8818 0.1313 -8.6364 -9.3187 -0.0026 -0.3272 0.8989 -5.9813 1.4113 11.6681 1.1325 1.1694 1.4406 4.3861 0.7061 -5.1781 -9.0687 -2.4833 -17.6108 6.6622 -2.3448 16.4677 3.4483 -1.0121 8.1950 0.0000 -0.0000 0.0000 -91.8847 10.5220 37.5751 116.3314 -57.2108 -82.5901 -0.0000 0.0000 -29.8717 17.0540 7.5207 2.2992 -7.1250 0.0000 -0.0000 -8.3323 37.7228 1.5052 0.0000 -0.0000 0.0000 89.3771 -26.6621 40.4476 -120.9409 56.0540 -86.4406 0.0000 -0.0000 -18.2514 -16.5017 24.8375 -7.0932 7.1250 -0.0000 -0.0000 7.9353 -4.4218 7.3724
1.6261 16.4827 -18.8034 5.4386 -6.6720 -5.3271 0.0000 0.0000 0.0000 -26.9070 1.7909 -8.5090 6.5251 14.9186 47.0546 1.5743 1.0746 -24.1302 0.5737 -4.8506 -13.4830 0.0000 0.0000 0.0000 9.3176 14.3599 -36.0652 -17.7516 -19.8784 83.4133 0.1048 -8.5062 -9.7968 -0.0001 0.0690 -0.1894 -6.4908 1.0912 11.4253 1.3566 0.7063 1.3332 4.9908 0.4914 -5.1091 -9.0023 -2.2394 -17.6767 6.2265 -1.9285 16.3364 3.3373 -0.8524 8.1225 -0.0000 -0.0000 0.0000 -92.5868 9.6767 36.9104 119.5614 -56.4257 -85.2937 -0.0000 0.0000 -31.4100 16.8702 7.0876 2.1429 -7.1250 0.0000 -0.0000 -8.4224 37.2640 1.6172 -0.0000 -0.0000 0.0000 88.3455 -28.2699 41.0714 -122.8555 55.4997 -88.0238 0.0000 -0.0000 -19.0427 -16.6656 24.9311 -7.1921 7.1250 -0.0000 -0.0000 7.8420 -4.3027 7.3016
1.5922 16.5475 -18.3032 5.7484 -6.8491 -5.0873 0.0000 0.0000 0.0000 -27.4007 2.3444 -6.5258 6.2711 14.6860 46.0601 1.5035 1.2726 -23.6665 1.1295 -6.7501 -18.9770 0.0000 0.0000 0.0000 9.0402 14.6882 -37.2858 -16.3929 -19.6851 79.4002 0.0853 -8.3334 -9.9921 -0.0014 -0.2449 0.6728 -7.1987 0.9657 11.1439 1.5526 0.4813 1.2767 5.6396 0.3942 -4.9893 -8.7607 -1.9806 -17.9964 5.6402 -1.4872 16.2155 3.1500 -0.6817 8.0959 -0.0000 0.0000 0.0000 -93.1172 8.6462 36.2985 122.5681 -55.5858 -87.7868 -0.0000 0.0000 -33.2453 16.4346 8.8733 2.6051 -7.1250 0.0000 -0.0000 -9.0781 39.0710 1.3391 -0.0000 0.0000 0.0000 87.3194 -29.4670 41.6539 -124.6217 54.9470 -89.4746 0.0000 -0.0000 -19.7590 -16.2685 24.8088 -6.9809 7.1250 -0.0000 -0.0000 8.0759 -4.4849 7.4960
1.5513 16.6157 -17.7957 5.9568 -7.4001 -4.8172 0.0000 0.0000 0.0000 -27.6940 3.3560 -4.7019 6.0114 14.4394 45.0273 1.3470 1.5269 -22.5296 1.7883 -8.4104 -23.9676 0.0000 0.0000 0.0000 9.0056 15.3821 -38.1616 -14.9077 -19.3666 74.9584 0.0668 -8.0940 -10.0499 -0.0020 -0.2858 0.7853 -7.7867 0.8854 10.7487 1.7466 0.3407 1.1212 6.2047 0.3409 -4.9172 -8.6135 -1.7064 -17.9662 5.2333 -1.0668 15.9735 3.0345 -0.5114 7.9745 0.0000 -0.0000 0.0000 -93.5613 8.0294 35.5907 125.5544 -54.6384 -90.2366 -0.0000 0.0000 -35.0243 16.9613 11.1486 3.3749 -7.1250 0.0000 -0.0000 -9.0432 41.4511 0.7989 0.0000 -0.0000 0.0000 86.2782 -30.7593 42.4184 -126.0642 54.4646 -90.6520 0.0000 -0.0000 -20.3431 -15.7559 25.3720 -6.8933 7.1250 -0.0000 -0.0000 8.4284 -3.9906 7.9090
